<svg id="HTML_CSS" data-name="HTML&amp;CSS" xmlns="http://www.w3.org/2000/svg" width="260" height="180" viewBox="0 0 260 180">
  <g id="css-3" transform="translate(131.25)">
    <path id="パス_86" data-name="パス 86" d="M64.741,215.036,12.162,200.614.445,70.766H129.2L117.466,200.594,64.741,215.036Z" transform="translate(-0.445 -35.036)" fill="#264de4"/>
    <path id="パス_87" data-name="パス 87" d="M170.622,204.393,180.65,92.057H128V216.209l42.622-11.816Z" transform="translate(-63.653 -47.386)" fill="#2965f1"/>
    <path id="パス_88" data-name="パス 88" d="M53.669,188.636l1.445,16.125H91.2V188.636Z" transform="translate(-26.812 -94.433)" fill="#ebebeb"/>
    <path id="パス_89" data-name="パス 89" d="M47.917,124l1.466,16.125H88.351V124Z" transform="translate(-23.963 -62.073)" fill="#ebebeb"/>
    <path id="パス_90" data-name="パス 90" d="M93.322,254.233l-.071.019L75.293,249.4l-1.148-12.86H57.958l2.259,25.319,33.031,9.17.074-.021V254.233Z" transform="translate(-28.937 -118.578)" fill="#ebebeb"/>
    <path id="パス_91" data-name="パス 91" d="M60.483,0h19.53V8.167H68.651v8.167H80.014V24.5H60.483V0Z" transform="translate(-30.185)"/>
    <path id="パス_92" data-name="パス 92" d="M106.9,0h19.53V7.1H115.068v1.42h11.363V24.857H106.9V17.4h11.363v-1.42H106.9V0Z" transform="translate(-53.179)"/>
    <path id="パス_93" data-name="パス 93" d="M153.319,0h19.53V7.1H161.486v1.42h11.363V24.857h-19.53V17.4h11.363v-1.42H153.319V0Z" transform="translate(-76.172)"/>
    <path id="パス_94" data-name="パス 94" d="M165.372,156.632,168.283,124H127.89V140.12h22.722l-1.467,16.512H127.89v16.125h19.856l-1.872,20.913-17.984,4.854V215.3l33.057-9.161.243-2.724,3.789-42.452.393-4.33Z" transform="translate(-63.583 -62.641)" fill="#fff"/>
  </g>
  <g id="html-5" transform="translate(0)">
    <path id="パス_95" data-name="パス 95" d="M129.2,70.766,117.466,200.594,64.741,215.036,12.162,200.614.445,70.766Z" transform="translate(-0.445 -35.036)" fill="#e44d26"/>
    <path id="パス_96" data-name="パス 96" d="M128,216.209l42.622-11.816L180.65,92.057H128V216.209Z" transform="translate(-63.653 -47.386)" fill="#f16529"/>
    <path id="パス_97" data-name="パス 97" d="M65.54,140.12H88.351V124H47.917l.386,4.326,3.963,44.436H88.351V156.632H67.013L65.54,140.12Z" transform="translate(-23.963 -62.241)" fill="#ebebeb"/>
    <path id="パス_98" data-name="パス 98" d="M74.145,236.542H57.958l2.259,25.319,33.031,9.17.074-.021V254.233l-.071.019L75.293,249.4l-1.148-12.86Z" transform="translate(-28.937 -118.578)" fill="#ebebeb"/>
    <path id="パス_99" data-name="パス 99" d="M24.181,0h8.195V8.1h7.5V0h8.195V24.517H39.872v-8.21h-7.5v8.21H24.181V0Z" transform="translate(-12.197)"/>
    <path id="パス_100" data-name="パス 100" d="M85.757,8.13H78.543V0H101.17V8.13H93.952V24.517H85.757V8.13Z" transform="translate(-39.132)"/>
    <path id="パス_101" data-name="パス 101" d="M130.469,0h8.545l5.256,8.615L149.521,0h8.547V24.517h-8.161V12.365l-5.638,8.717h-.141l-5.642-8.717V24.517h-8.018V0Z" transform="translate(-64.856)"/>
    <path id="パス_102" data-name="パス 102" d="M193.21,0h8.2V16.413h11.524v8.1H193.21V0Z" transform="translate(-95.938)"/>
    <path id="パス_103" data-name="パス 103" d="M127.89,204.761h19.856l-1.872,20.913-17.984,4.854V247.3l33.057-9.161.243-2.724,3.789-42.452.393-4.33H127.89v16.125Z" transform="translate(-63.582 -94.792)" fill="#fff"/>
    <path id="パス_104" data-name="パス 104" d="M127.89,140.081v.039h38.95l.323-3.624.735-8.175.385-4.326H127.89v16.086Z" transform="translate(-63.583 -62.073)" fill="#fff"/>
  </g>
</svg>
