<svg id="javascript" xmlns="http://www.w3.org/2000/svg" width="130" height="180" viewBox="0 0 130 180">
  <path id="Path_275" data-name="Path 275" d="M130,489.9H0l12.187,130,52.806,14.732L117.8,619.9Z" transform="translate(0 -454.627)" fill="#e6a329"/>
  <path id="Path_276" data-name="Path 276" d="M887.9,637V760.12L929.985,748.2,940.222,637Z" transform="translate(-821.842 -591.136)" fill="#f1bf22"/>
  <path id="Path_277" data-name="Path 277" d="M460.814,858.5H396.107L391.6,907.167l.093-.3h54.972l-1.79,20.591-17.54,5.046-17.8-5.127-1.066-12.463H392.315l2.3,24.9,32.716,9.287,32.73-9.287,4.507-48.881H406.231l.749-16.286h40.478l.606,9.331h16.293Z" transform="translate(-362.311 -796.688)" fill="#fff"/>
  <path id="Path_278" data-name="Path 278" d="M427.348,858.5H396.107L391.6,907.167l.093-.3h35.654V890.988h-18.84l.749-16.286h18.093Zm-18.842,56.419H392.313l2.3,24.89,32.716,9.278V932.524l-17.8-5.14Z" transform="translate(-362.753 -796.688)" fill="#ebebeb"/>
  <path id="Path_279" data-name="Path 279" d="M568.484,16.1H557.1v8.172h19.532V0h-8.138ZM604.743.13H584.9v8.5c2.65,2.65,4.032,3.924,7.935,7.762H584.9v7.748h19.843V16.4L596.815,8.64h7.935Z" transform="translate(-515.924)" fill="#231f20"/>
</svg>
