<svg xmlns="http://www.w3.org/2000/svg" width="200" height="160" viewBox="0 0 200 160">
  <g id="sass" transform="translate(15.546 -61.454)">
    <path id="パス_118" data-name="パス 118" d="M172.67,92.432a39.291,39.291,0,0,0-18.119,4.481c-1.863-3.936-3.727-7.443-4.055-10.015-.366-3-.8-4.832-.366-8.417s2.411-8.69,2.375-9.08-.438-2.221-4.457-2.26-7.489.818-7.891,1.948a49.48,49.48,0,0,0-1.68,6.352c-.694,3.9-8.036,17.809-12.238,25.1-1.351-2.845-2.52-5.339-2.776-7.327-.365-3-.8-4.832-.365-8.417s2.411-8.69,2.375-9.08-.439-2.221-4.457-2.26-7.489.818-7.891,1.948-.841,3.78-1.68,6.352-10.594,25.8-13.151,31.8c-1.315,3.079-2.447,5.534-3.251,7.21h0a1.845,1.845,0,0,1-.147.312c-.694,1.442-1.1,2.221-1.1,2.221v.038c-.548,1.052-1.133,2.027-1.425,2.027-.219,0-.621-2.805.073-6.625,1.461-8.066,4.932-20.614,4.9-21.043,0-.234.657-2.416-2.265-3.547a3.482,3.482,0,0,0-4.129.74c-.255,0-.438.663-.438.663s3.178-14.107-6.064-14.107c-5.771,0-13.735,6.742-17.681,12.821-2.484,1.442-7.781,4.52-13.443,7.833-2.155,1.286-4.384,2.572-6.466,3.78-.146-.155-.292-.351-.438-.506C35.241,92.627,14.565,83.625,15.441,66.517c.329-6.235,2.338-22.6,39.709-42.477,30.759-16.172,55.235-11.691,59.472-1.754,6.064,14.185-13.114,40.528-44.9,44.347C57.6,68.076,51.241,63.088,49.634,61.217c-1.68-1.948-1.936-2.065-2.557-1.676-1.023.585-.365,2.338,0,3.351.95,2.65,4.859,7.326,11.471,9.625,5.845,2.026,20.055,3.157,37.261-3.936,19.252-7.95,34.3-30.045,29.883-48.556-4.42-18.783-33.645-24.979-61.3-14.5C47.954,11.765,30.127,21.586,17.3,34.368,2.071,49.566-.34,62.776.646,68.31,4.19,87.95,29.579,100.732,39.734,110.2c-.511.312-.986.585-1.388.818-5.078,2.689-24.439,13.483-29.261,24.9-5.48,12.938.877,22.212,5.078,23.459,13.041,3.858,26.448-3.078,33.645-14.535s6.32-26.343,3-33.163a.823.823,0,0,0-.146-.234c1.315-.818,2.667-1.676,3.982-2.494,2.594-1.637,5.151-3.156,7.343-4.4a54.362,54.362,0,0,0-2.594,14.184c-.548,7.327,2.265,16.834,5.955,20.576a6.307,6.307,0,0,0,4.822,1.676c4.311,0,6.247-3.819,8.4-8.34,2.63-5.533,5-11.963,5-11.963s-2.959,17.38,5.078,17.38c2.922,0,5.881-4.053,7.2-6.118v.038s.073-.117.219-.389c.292-.506.475-.818.475-.818V130.7c1.169-2.183,3.8-7.132,7.708-15.354,5.041-10.6,9.9-23.849,9.9-23.849a71.505,71.505,0,0,0,1.936,8.612c.877,3.156,2.7,6.625,4.165,9.976-1.169,1.754-1.9,2.728-1.9,2.728l.037.039c-.95,1.325-1.973,2.767-3.105,4.169-3.982,5.066-8.73,10.873-9.388,12.548-.767,1.987-.584,3.43.877,4.6,1.06.857,2.959.974,4.9.857a21.345,21.345,0,0,0,7.342-1.793,24.135,24.135,0,0,0,6.32-3.547A15.446,15.446,0,0,0,131.39,116.4a28.27,28.27,0,0,0-2.3-9.392c.366-.545.694-1.091,1.06-1.636a182.109,182.109,0,0,0,10.959-20.187,71.5,71.5,0,0,0,1.936,8.613,59.8,59.8,0,0,0,3.543,8.573c-5.808,5.028-9.388,10.873-10.667,14.692-2.3,7.093-.512,10.288,2.886,11.028,1.534.351,3.726-.429,5.333-1.169a23.758,23.758,0,0,0,6.759-3.7c3.908-3.079,7.671-7.366,7.452-13.172a26.3,26.3,0,0,0-1.68-7.795c4.932-2.182,11.288-3.39,19.4-2.377,17.389,2.182,20.822,13.757,20.165,18.627a12.278,12.278,0,0,1-5.516,8.34c-1.206.818-1.608,1.091-1.5,1.676.146.857.73.819,1.753.663a14.232,14.232,0,0,0,9.461-12.9c.548-11.457-9.681-23.966-27.763-23.849ZM38.529,140.676c-5.772,6.7-13.809,9.235-17.279,7.093-3.726-2.3-2.265-12.2,4.822-19.29a92.73,92.73,0,0,1,13.553-10.795c.84-.546,2.082-1.325,3.58-2.3.256-.156.4-.234.4-.234h0l.877-.584c2.594,10.131.11,19.056-5.954,26.109ZM80.539,110.2c-2.009,5.222-6.21,18.589-8.768,17.848-2.192-.623-3.543-10.756-.438-20.771a48.168,48.168,0,0,1,6.831-13.366c3.142-3.741,6.612-4.988,7.452-3.468,1.06,1.987-3.836,16.484-5.077,19.757Zm34.668,17.692c-.841.468-1.644.78-2.009.546-.255-.156.366-.78.366-.78s4.347-4.988,6.064-7.248c.986-1.325,2.155-2.883,3.4-4.637v.506c0,5.963-5.407,9.977-7.818,11.613Zm26.74-6.508c-.621-.468-.512-2.027,1.571-6.9a25.876,25.876,0,0,1,5.955-8.183,11.7,11.7,0,0,1,.584,3.585c-.037,7.521-5.077,10.327-8.11,11.5Z" transform="translate(-16 61)" fill="#cd6799"/>
  </g>
</svg>
